<?xml version="1.0" encoding="utf-8"?>
<!-- Generator: Adobe Illustrator 25.4.1, SVG Export Plug-In . SVG Version: 6.00 Build 0)  -->
<svg version="1.1" xmlns="http://www.w3.org/2000/svg" xmlns:xlink="http://www.w3.org/1999/xlink" x="0px" y="0px"
	 viewBox="0 0 668 115.2" style="enable-background:new 0 0 668 115.2;" xml:space="preserve">
<style type="text/css">
	.st0{enable-background:new    ;}
	.st1{fill:#FFFFFF;}
</style>
<g id="Noimos_copy_1_" class="st0">
</g>
<g id="Ellipse_1_copy_4_1_" class="st0">
	<g>
		<g id="Noimos_copy">
			<g>
				<path class="st1" d="M316.6,27h-0.1c-20.6,0-38,13.6-38,38.3v0.2c0,24.7,17.6,38.3,38,38.3h0.1c20.6,0,38-13.6,38-38.3v-0.2
					C354.6,40.5,337.1,27,316.6,27z M339,71.4c0,18.4-10.5,29.2-22.4,29.2h-0.1c-11.4,0-22.4-10.9-22.4-29.2V59.2
					c0-18.4,11-29.2,22.4-29.2h0.1c11.9,0,22.4,11,22.4,29.2V71.4z M373,3.6c-5.3,0-9.8,2.9-9.8,8.6c0,5.6,4.5,8.4,9.8,8.4
					c5.4,0,9.8-2.9,9.8-8.4C382.7,6.5,378.4,3.6,373,3.6z M365.2,27.7v75.4h15.6c0,0,0-39.5,0-61.3
					C380.8,27.2,365.2,27.7,365.2,27.7z M489.3,26.8h-0.2c-14,0-24.8,7.2-27.4,18.5c-3.5-13.1-12-18.5-24.4-18.5h-0.2
					c-12.5,0-22.8,7.1-25.9,17V27.7h-15.6v75.4h15.6V57.7c0-17.2,10.8-24,18.9-24h0.2c8.6,0,17.1,5.4,17.1,21.9l-0.1,47.5h15.6V55.6
					c0-16.4,10.2-21.9,19.1-21.9h0.2c10.7,0,17,6.8,17,23.8c0,0,0,18.3,0,31.7c0,14.1,15.6,13.9,15.6,13.9V58.6
					C515,35.9,505.2,26.8,489.3,26.8z M562.2,27H562c-20.6,0-38,13.6-38,38.3v0.2c0,24.7,17.6,38.3,38,38.3h0.1
					c20.6,0,38-13.6,38-38.3v-0.2C600.2,40.5,582.6,27,562.2,27z M584.6,71.4c0,18.4-10.5,29.2-22.4,29.2H562
					c-11.4,0-22.4-10.9-22.4-29.2V59.2c0-18.4,11-29.2,22.4-29.2h0.1c11.9,0,22.4,11,22.4,29.2V71.4z M637,57.3
					c-15-3.6-19.1-9.3-18.8-14.9c0.3-8.4,7.7-13,20.3-12.1c14.4,0.9,20.7,11.5,19.7,18.7l2.9,0.5c1.2-8.6-5.7-22.6-26.8-22.6
					c-17.6,0-26.9,8.4-26.9,21.6c0,11,8.4,19.4,25.9,24c17.9,3.9,20.6,8.9,20.6,15.2c-0.2,5.6-6.3,13.7-21.3,13
					c-16.2-0.6-23.4-12.2-22.4-20.3l-3-0.3c-1.4,8.4,5.6,24.1,29.8,24.1c14.6,0,28.6-7.5,28.6-22.5C665.5,70.4,658.1,62.5,637,57.3z
					 M241.6,27.1c-12.7,0-23.7,7.4-26.4,17.4V28h-15.7v75.1h15.7V57.8c0-18,11.2-23.7,19.6-23.7c10.4,0,17.5,6.9,17.5,23.7
					c0,0,0,17.3,0,30.5c0,14.8,15.7,14.9,15.7,14.9V58.8C268,36.2,257.6,27.1,241.6,27.1z"/>
			</g>
		</g>
		<g id="Ellipse_1_copy_4">
			<g>
				<path class="st1" d="M90.8,29.4c27.5,5.5,52.1,25.1,68.3,41.2c8.9-0.6,15.2-3.3,18.9-5.5c-0.7-0.8-3.2-3.7-7.4-7.6
					c-13.7-13.2-44.5-38.4-80.2-38.4c-19.2,0-36.9,7.2-51.3,16C54.5,29.3,72.5,25.8,90.8,29.4z M96.9,55
					C40.7,19.2,2.5,65.4,2.5,65.4s25.1-25.5,81.3,10.4c41.8,26.7,73.6,7.9,87.2-3.4c4.7-3.9,7.2-6.9,7.2-6.9S153,90.8,96.9,55z
					 M89.9,101.3c-27.5-5.5-52.1-25.1-68.3-41.2c-8.9,0.6-15.2,3.3-18.9,5.5c0.7,0.8,3.2,3.7,7.4,7.6c13.7,13.2,44.5,38.4,80.2,38.4
					c19.2,0,36.9-7.2,51.3-16C126.2,101.4,108.2,104.9,89.9,101.3z"/>
			</g>
		</g>
	</g>
</g>
</svg>
